<svg width="27" height="32" viewBox="0 0 27 32" fill="none" xmlns="http://www.w3.org/2000/svg">
<path d="M10.3152 5.62744C10.2079 5.64931 10.0415 5.68827 10.0415 5.68827L9.91983 5.71869L9.46359 5.84035L9.28109 5.90118L9.12901 5.96202L8.85526 6.08368L8.64234 6.20535L8.30776 6.41826L7.97318 6.72243L7.66902 7.08743L7.42569 7.48284L7.24319 7.84784L7.06069 8.30408L6.90861 8.79075C6.90861 8.79075 6.82323 9.0849 6.78694 9.27741C6.75364 9.45405 6.75008 9.55551 6.72611 9.73366C6.69093 9.99504 6.66273 10.1406 6.63486 10.4028C6.59586 10.7697 6.59279 10.9772 6.57402 11.3457C6.55891 11.6425 6.55549 11.8092 6.54361 12.1061C6.53173 12.4031 6.52126 12.5695 6.51319 12.8666C6.4961 13.4959 6.51319 13.8491 6.51319 14.4786V15.8169V17.0336V18.6311V19.3453L6.57402 20.5619L6.60444 21.1094C6.60444 21.1094 6.65877 22.0414 6.75652 22.6302C6.80612 22.929 6.82535 23.0995 6.90861 23.3906C6.99958 23.7088 7.06744 23.8842 7.21277 24.1815C7.30855 24.3774 7.36388 24.4878 7.48652 24.6681C7.55332 24.7664 7.59421 24.8192 7.66902 24.9115C7.75909 25.0226 7.80888 25.0865 7.91235 25.1852C8.02239 25.2902 8.09134 25.3421 8.21651 25.4285C8.3523 25.5223 8.58151 25.6415 8.58151 25.6415L9.00734 25.8544L9.55484 26.0673L10.1936 26.2498L10.8019 26.3715L11.319 26.4323L12.2923 26.5235L13.6915 26.6148C13.6915 26.6148 14.952 26.6399 15.7598 26.6452C16.4012 26.6494 16.761 26.6583 17.4023 26.6452C18.1869 26.6292 18.626 26.5944 19.4098 26.554C20.2297 26.5117 20.6898 26.4928 21.5085 26.4323C22.6271 26.3496 23.2516 26.2708 24.3676 26.1585C24.831 26.1119 25.5539 26.0369 25.5539 26.0369V31.0556V31.086C25.5539 31.086 25.3315 31.1234 25.1889 31.1468C24.8921 31.1957 24.7261 31.225 24.4285 31.2685C24.0649 31.3216 23.8586 31.346 23.497 31.3888L23.4856 31.3902C23.0348 31.4435 22.7808 31.4614 22.3297 31.5118C21.9256 31.557 21.6998 31.5891 21.2956 31.6335C20.9514 31.6714 20.7583 31.6922 20.4135 31.7248C19.9863 31.7651 19.7465 31.7847 19.3185 31.816C18.9505 31.8429 18.744 31.8552 18.3756 31.8768C17.9125 31.904 17.6528 31.9175 17.1894 31.9377C16.8806 31.9511 16.7076 31.965 16.3985 31.9681C16.2916 31.9691 16.1248 31.9681 16.1248 31.9681C16.1248 31.9681 15.4576 31.9936 15.0298 31.9985C14.7329 32.0019 14.5663 31.9985 14.2694 31.9985C14.115 31.9985 14.0284 31.9993 13.874 31.9985C13.3631 31.9957 13.077 31.9689 12.5661 31.9681C12.5304 31.968 12.5105 31.9683 12.4748 31.9681C12.2014 31.9667 12.1672 31.9614 11.7752 31.9377L10.7715 31.8768C10.3795 31.8531 10.3635 31.841 10.1023 31.816C9.86467 31.7933 9.73122 31.7822 9.494 31.7552C9.22026 31.7239 9.06707 31.7036 8.79443 31.6639C8.56832 31.631 8.44201 31.6095 8.21651 31.5727C8.07389 31.5494 7.99352 31.5386 7.85152 31.5118C7.68438 31.4803 7.59126 31.4595 7.42569 31.4206C7.19849 31.3673 7.07241 31.3318 6.84777 31.2685C6.57289 31.1911 6.41923 31.1456 6.14819 31.0556C5.94496 30.9881 5.8309 30.9502 5.63111 30.8731C5.22941 30.7181 5.00715 30.6197 4.62737 30.4168C4.45844 30.3266 4.20154 30.1735 4.20154 30.1735C4.20154 30.1735 3.86015 29.962 3.65405 29.8085C3.4174 29.6323 3.2931 29.5218 3.07613 29.3219C2.87849 29.1397 2.76835 29.0358 2.58947 28.8352C2.37274 28.5921 2.26567 28.4402 2.0803 28.1772L2.07239 28.166C1.90914 27.9344 1.82004 27.8023 1.67698 27.5577C1.53479 27.3146 1.461 27.1744 1.3424 26.919C1.20798 26.6295 1.14695 26.4602 1.03895 26.1605L1.03823 26.1585C0.903199 25.7839 0.835912 25.5702 0.734067 25.1852C0.63456 24.8091 0.593316 24.5942 0.521152 24.2119C0.467549 23.9279 0.442853 23.7676 0.399486 23.4819C0.345541 23.1265 0.315512 22.9269 0.27782 22.5694C0.247828 22.2849 0.240744 22.1245 0.216987 21.8394C0.181352 21.4118 0.155006 21.1725 0.125738 20.7444C0.0949086 20.2935 0.0823227 20.0403 0.0649051 19.5886C0.0429296 19.0187 0.0448488 18.6988 0.0344887 18.1286C0.0193819 17.2972 0.00817952 16.831 0.00407223 15.9994C0.00190146 15.56 -0.00388996 15.3135 0.00407223 14.874C0.0144105 14.3035 0.0408935 13.9842 0.0649051 13.414C0.0884174 12.8558 0.0922424 12.5423 0.125738 11.9845C0.154299 11.5089 0.176122 11.2425 0.216987 10.7678C0.26818 10.1731 0.293356 9.83905 0.36907 9.24699C0.42085 8.84208 0.448931 8.6146 0.521152 8.21283C0.600706 7.77027 0.647409 7.52157 0.764483 7.08743C0.838837 6.8117 0.888457 6.65922 0.977399 6.38785C1.08739 6.05224 1.14786 5.86307 1.28156 5.53619C1.37014 5.31963 1.4225 5.19907 1.52489 4.98869C1.62489 4.78325 1.70362 4.63791 1.79864 4.47161L2.04197 4.04578C2.137 3.87948 2.24174 3.76459 2.37656 3.58953C2.52597 3.39552 2.60777 3.28455 2.77197 3.10287C2.92966 2.92839 3.1978 2.67704 3.1978 2.67704L3.34988 2.52496C3.34988 2.52496 3.54984 2.35308 3.68446 2.25121C3.83423 2.13788 3.9237 2.08178 4.07988 1.97746C4.24427 1.86766 4.33524 1.80384 4.50571 1.70371C4.67982 1.60144 4.78128 1.55056 4.96195 1.46038C5.13788 1.37258 5.23758 1.32517 5.4182 1.24747C5.62893 1.1568 5.74989 1.11238 5.9657 1.03455C6.17771 0.958097 6.2875 0.911445 6.51319 0.852053L7.0911 0.699971C7.31679 0.640579 7.46051 0.601582 7.69943 0.547889C7.93581 0.494767 8.06931 0.469085 8.30776 0.426223C8.6153 0.370941 8.78948 0.350231 9.09859 0.304557C9.34786 0.267725 9.48723 0.243948 9.73734 0.213308C10.128 0.165446 10.3487 0.15274 10.7411 0.122058C11.0971 0.0942192 11.297 0.0806312 11.6536 0.0612254C11.9148 0.0470114 12.0613 0.0411051 12.3227 0.0308089C12.7146 0.0153736 13.3265 0.0003925 13.3265 0.0003925H14.2086C14.3273 0.0003925 14.3939 -0.000490625 14.5127 0.0003925C14.893 0.00321988 15.106 0.0162309 15.486 0.0308089C15.7593 0.0412917 15.9127 0.0445923 16.1856 0.0612254C16.483 0.0793455 16.6493 0.0953554 16.946 0.122058C17.3981 0.162741 17.652 0.18346 18.1019 0.243724C18.4116 0.285213 18.5853 0.309254 18.8927 0.36539C19.2273 0.426497 19.4127 0.472429 19.7443 0.547889C20.0899 0.626503 20.2857 0.663473 20.6264 0.760804C20.854 0.82581 20.9809 0.865303 21.2043 0.943303C21.4813 1.03999 21.635 1.09985 21.9039 1.21705C22.1085 1.30621 22.2235 1.35639 22.421 1.46038C22.6661 1.58947 22.7994 1.67083 23.0293 1.82538C23.2127 1.94864 23.3153 2.01912 23.4856 2.15996C23.6216 2.27252 23.6895 2.34534 23.8202 2.46412C23.9508 2.58291 24.0324 2.64097 24.1547 2.76829C24.2833 2.90207 24.3428 2.98851 24.4589 3.13329C24.5807 3.2853 24.6499 3.3701 24.7631 3.5287C24.8626 3.66816 24.9182 3.74681 25.0064 3.8937C25.083 4.02131 25.1201 4.0963 25.1889 4.22828C25.2503 4.34605 25.2845 4.41226 25.341 4.53244C25.3908 4.63831 25.4626 4.80619 25.4626 4.80619L25.4931 4.86702C25.4931 4.86702 25.5509 4.99586 25.5843 5.07994C25.6536 5.2545 25.7364 5.53619 25.7364 5.53619L25.9189 6.08368C25.9189 6.08368 25.9975 6.342 26.0406 6.50951C26.08 6.66301 26.1318 6.90493 26.1318 6.90493C26.1318 6.90493 26.1866 7.16463 26.2231 7.33076C26.2465 7.43773 26.2618 7.49723 26.2839 7.60451C26.3444 7.89909 26.4056 8.36492 26.4056 8.36492L26.5576 9.70324L26.6793 11.5891C26.6793 11.5891 26.7359 12.6082 26.7401 13.262C26.7411 13.4045 26.7401 13.627 26.7401 13.627L26.7705 14.722V15.7561V16.5774V18.1286H22.1777H20.8089H20.5656V17.794V17.3378V16.5469V15.7561V15.1782V14.4178V13.7486C20.5656 13.7486 20.5706 13.2851 20.5656 12.9882C20.56 12.6555 20.5352 12.1366 20.5352 12.1366L20.5048 11.3761L20.4439 10.7374C20.4439 10.7374 20.3993 10.2724 20.3527 9.97699C20.3131 9.72617 20.281 9.5872 20.231 9.33824C20.1856 9.11213 20.1635 8.98452 20.1093 8.76033C20.066 8.58108 20.0451 8.47931 19.9877 8.30408C19.9361 8.14687 19.8961 8.06264 19.8356 7.90867C19.7888 7.78961 19.7139 7.60451 19.7139 7.60451C19.7139 7.60451 19.5924 7.37694 19.501 7.23951C19.3932 7.07726 19.1969 6.84409 19.1969 6.84409L18.8014 6.44868C18.8014 6.44868 18.693 6.35251 18.6189 6.2966C18.4953 6.20326 18.4194 6.15946 18.2844 6.08368C18.1685 6.01871 18.1019 5.98477 17.9802 5.9316C17.8184 5.86091 17.7232 5.83112 17.5544 5.77952C17.367 5.72227 17.0677 5.65785 17.0677 5.65785L16.429 5.53619L15.7598 5.44494L15.0298 5.3841C15.0298 5.3841 14.5294 5.35963 14.2086 5.35369C13.8879 5.34775 13.708 5.34888 13.3873 5.35369C13.0189 5.35922 12.8123 5.3649 12.4444 5.3841L12.4399 5.38434C12.2516 5.39416 12.0874 5.40274 11.9577 5.41452C11.9577 5.41452 11.7538 5.43244 11.6232 5.44494C11.5043 5.45631 11.4376 5.46185 11.319 5.47535C11.319 5.47535 11.1706 5.493 11.0757 5.50577C10.9924 5.51697 10.9459 5.52431 10.8627 5.53619C10.7796 5.54807 10.7328 5.5535 10.6498 5.5666C10.5187 5.58732 10.4454 5.60091 10.3152 5.62744Z" fill="#899BFF"/>
<g opacity="0.9" filter="url(#filter0_b_3102_6)">
<path d="M3.66783 18.4972L3.40817 18.5579L2.94654 18.6794C2.94654 18.6794 2.68023 18.7703 2.62916 18.9224C2.59913 19.0118 2.62916 19.1654 2.62916 19.1654L2.68687 19.4083L2.77342 19.8335L2.85998 20.2283L2.91768 20.4713L3.00424 20.8661L3.09079 21.261L3.17735 21.6558L3.26391 22.0506L3.32161 22.3239L3.40817 22.7188L3.52357 23.2351L3.58128 23.478C3.58128 23.478 3.61686 23.6015 3.66783 23.6603C3.74267 23.7465 3.81804 23.8009 3.9275 23.7818C4.10062 23.7514 4.33143 23.6906 4.33143 23.6906L4.85076 23.5692L5.25469 23.478L5.91829 23.3262L6.43762 23.2047L6.95696 23.0832L7.62055 22.9314L8.2553 22.7795L8.65922 22.6884L9.06315 22.5973L9.46708 22.5062L10.1018 22.3543L10.7654 22.2025L11.2848 22.081L11.8329 21.9595L12.3234 21.838L12.987 21.6862L13.5064 21.5647L14.3142 21.3824L14.9489 21.2306L15.6414 21.0787L16.1607 20.9572L16.6801 20.8358L17.0551 20.7446L17.4591 20.6535L17.863 20.5624L18.2381 20.4713L18.642 20.3802L19.0171 20.2891L19.421 20.198L19.8249 20.1069L20.2289 20.0157L20.7482 19.8943L21.1521 19.8031L21.6715 19.6817L22.0465 19.5905L22.5659 19.4691L22.9698 19.3779L23.3737 19.2868L23.8931 19.1654L24.4124 19.0439L25.076 18.892L25.5953 18.7705C25.5953 18.7705 25.7107 18.7402 25.7973 18.7098C25.9042 18.6723 25.9468 18.5828 25.9704 18.4668C25.9822 18.4088 25.9704 18.315 25.9704 18.315L25.855 17.7075L25.7396 17.1001L25.5953 16.3105L25.4799 15.703L25.3645 15.0653L25.2491 14.4578L25.1337 13.8504L25.076 13.6075C25.0489 13.4936 24.9798 13.432 24.874 13.3948C24.7992 13.3686 24.6721 13.3948 24.6721 13.3948L24.5278 13.4252L24.0662 13.5467L23.316 13.7289L22.5082 13.9112L21.6715 14.1238L21.2964 14.2149L21.0367 14.2756L20.6616 14.3667L20.2866 14.4578L19.9115 14.5489L19.6518 14.6097L19.2767 14.7008L18.9017 14.7919L18.5266 14.883L18.1515 14.9741L17.7764 15.0653L17.4014 15.1564L17.0263 15.2475L16.5358 15.369L16.0453 15.4905L15.526 15.6119L15.1509 15.703L14.6604 15.8245L14.1699 15.946L13.6506 16.0675L13.0447 16.2194L12.7851 16.2801L12.41 16.3712L12.0349 16.4623L11.6598 16.5534L11.2848 16.6446L10.9097 16.7357L10.5346 16.8268L10.1595 16.9179L9.66904 17.0394L9.29397 17.1305L8.91889 17.2216L8.65922 17.2823L8.28415 17.3735L7.67826 17.5253L7.15892 17.6468L6.40877 17.829L5.91829 17.9505L5.28354 18.1024L4.79306 18.2238L4.41798 18.315L4.04291 18.4061L3.66783 18.4972Z" fill="white" fill-opacity="0.8"/>
</g>
<defs>
<filter id="filter0_b_3102_6" x="-5.38419" y="5.38318" width="39.3598" height="26.4025" filterUnits="userSpaceOnUse" color-interpolation-filters="sRGB">
<feFlood flood-opacity="0" result="BackgroundImageFix"/>
<feGaussianBlur in="BackgroundImageFix" stdDeviation="4"/>
<feComposite in2="SourceAlpha" operator="in" result="effect1_backgroundBlur_3102_6"/>
<feBlend mode="normal" in="SourceGraphic" in2="effect1_backgroundBlur_3102_6" result="shape"/>
</filter>
</defs>
</svg>
